<mxfile host="app.diagrams.net" agent="Mozilla/5.0 (Windows NT 10.0; Win64; x64) AppleWebKit/537.36 (KHTML, like Gecko) Chrome/131.0.0.0 Safari/537.36" version="24.8.8">
  <diagram name="第 1 页" id="MqHHtZkUZvITKIL22yEw">
    <mxGraphModel dx="1797" dy="1118" grid="0" gridSize="10" guides="1" tooltips="1" connect="1" arrows="0" fold="1" page="0" pageScale="1" pageWidth="827" pageHeight="1169" math="0" shadow="0">
      <root>
        <mxCell id="0" />
        <mxCell id="1" parent="0" />
        <mxCell id="YaFDKW23oe8Q6Nkccpcs-1" value="Actor" style="shape=umlActor;verticalLabelPosition=bottom;verticalAlign=top;html=1;outlineConnect=0;" vertex="1" parent="1">
          <mxGeometry x="-218.99999999999997" y="371" width="30" height="60" as="geometry" />
        </mxCell>
        <mxCell id="YaFDKW23oe8Q6Nkccpcs-9" style="edgeStyle=orthogonalEdgeStyle;rounded=0;orthogonalLoop=1;jettySize=auto;html=1;exitX=1;exitY=0.5;exitDx=0;exitDy=0;" edge="1" parent="1" source="YaFDKW23oe8Q6Nkccpcs-2" target="YaFDKW23oe8Q6Nkccpcs-6">
          <mxGeometry relative="1" as="geometry" />
        </mxCell>
        <mxCell id="YaFDKW23oe8Q6Nkccpcs-2" value="knowledge" style="rounded=1;whiteSpace=wrap;html=1;" vertex="1" parent="1">
          <mxGeometry x="-259" y="-69" width="101" height="100" as="geometry" />
        </mxCell>
        <mxCell id="YaFDKW23oe8Q6Nkccpcs-10" style="edgeStyle=orthogonalEdgeStyle;rounded=0;orthogonalLoop=1;jettySize=auto;html=1;exitX=0;exitY=0.5;exitDx=0;exitDy=0;" edge="1" parent="1" source="YaFDKW23oe8Q6Nkccpcs-3" target="YaFDKW23oe8Q6Nkccpcs-6">
          <mxGeometry relative="1" as="geometry" />
        </mxCell>
        <mxCell id="YaFDKW23oe8Q6Nkccpcs-3" value="change" style="rounded=1;whiteSpace=wrap;html=1;" vertex="1" parent="1">
          <mxGeometry x="140" y="28" width="150" height="86" as="geometry" />
        </mxCell>
        <mxCell id="YaFDKW23oe8Q6Nkccpcs-4" value="target" style="ellipse;whiteSpace=wrap;html=1;" vertex="1" parent="1">
          <mxGeometry x="-400" y="178" width="120" height="80" as="geometry" />
        </mxCell>
        <mxCell id="YaFDKW23oe8Q6Nkccpcs-11" style="edgeStyle=orthogonalEdgeStyle;rounded=0;orthogonalLoop=1;jettySize=auto;html=1;exitX=0.59;exitY=1;exitDx=0;exitDy=0;exitPerimeter=0;entryX=0.5;entryY=0;entryDx=0;entryDy=0;" edge="1" parent="1" source="YaFDKW23oe8Q6Nkccpcs-6" target="YaFDKW23oe8Q6Nkccpcs-12">
          <mxGeometry relative="1" as="geometry">
            <mxPoint x="-0.1708831787109375" y="295.2677536010742" as="targetPoint" />
          </mxGeometry>
        </mxCell>
        <mxCell id="YaFDKW23oe8Q6Nkccpcs-6" value="" style="shape=mxgraph.signs.healthcare.brain;html=1;pointerEvents=1;fillColor=#000000;strokeColor=none;verticalLabelPosition=bottom;verticalAlign=top;align=center;" vertex="1" parent="1">
          <mxGeometry x="-104" y="-2" width="185" height="146" as="geometry" />
        </mxCell>
        <mxCell id="YaFDKW23oe8Q6Nkccpcs-8" value="" style="dashed=0;outlineConnect=0;html=1;align=center;labelPosition=center;verticalLabelPosition=bottom;verticalAlign=top;shape=mxgraph.weblogos.ask;fillColor=#D22028;strokeColor=none" vertex="1" parent="1">
          <mxGeometry x="-319" y="290.4" width="68.60000000000001" height="50.6" as="geometry" />
        </mxCell>
        <mxCell id="YaFDKW23oe8Q6Nkccpcs-12" value="result" style="shape=document;whiteSpace=wrap;html=1;boundedLbl=1;" vertex="1" parent="1">
          <mxGeometry x="-55" y="326" width="120" height="80" as="geometry" />
        </mxCell>
        <mxCell id="YaFDKW23oe8Q6Nkccpcs-14" style="edgeStyle=orthogonalEdgeStyle;rounded=0;orthogonalLoop=1;jettySize=auto;html=1;exitX=0.5;exitY=0;exitDx=0;exitDy=0;" edge="1" parent="1" source="YaFDKW23oe8Q6Nkccpcs-13" target="YaFDKW23oe8Q6Nkccpcs-6">
          <mxGeometry relative="1" as="geometry">
            <mxPoint x="-191.3474578857422" y="149.18932342529297" as="targetPoint" />
          </mxGeometry>
        </mxCell>
        <mxCell id="YaFDKW23oe8Q6Nkccpcs-13" value="" style="shape=image;html=1;verticalAlign=top;verticalLabelPosition=bottom;labelBackgroundColor=#ffffff;imageAspect=0;aspect=fixed;image=https://cdn1.iconfinder.com/data/icons/iconoir-vol-3/24/question-mark-circle-128.png" vertex="1" parent="1">
          <mxGeometry x="-246.5" y="265" width="76" height="76" as="geometry" />
        </mxCell>
      </root>
    </mxGraphModel>
  </diagram>
</mxfile>
